solid ascii
  facet normal -9.961947e-001 -8.715574e-002 8.438664e-017
    outer loop
      vertex   -9.214859e+000 1.579142e+000 4.013718e+000
      vertex   -9.937161e+000 9.835092e+000 4.013718e+000
      vertex   -9.214859e+000 1.579142e+000 1.473718e+000
    endloop
  endfacet
  facet normal -9.961947e-001 -8.715574e-002 -0.000000e+000
    outer loop
      vertex   -9.214859e+000 1.579142e+000 1.473718e+000
      vertex   -9.937161e+000 9.835092e+000 4.013718e+000
      vertex   -9.937161e+000 9.835092e+000 1.473718e+000
    endloop
  endfacet
  facet normal 6.427876e-001 -7.660444e-001 5.268101e-016
    outer loop
      vertex   -3.113205e+000 6.699038e+000 4.013718e+000
      vertex   -9.214859e+000 1.579142e+000 4.013718e+000
      vertex   -3.113205e+000 6.699038e+000 1.473718e+000
    endloop
  endfacet
  facet normal 6.427876e-001 -7.660444e-001 5.357355e-016
    outer loop
      vertex   -3.113205e+000 6.699038e+000 1.473718e+000
      vertex   -9.214859e+000 1.579142e+000 4.013718e+000
      vertex   -9.214859e+000 1.579142e+000 1.473718e+000
    endloop
  endfacet
  facet normal 5.820560e-001 8.131487e-001 0.000000e+000
    outer loop
      vertex   -9.079322e+000 1.096962e+001 4.013718e+000
      vertex   -3.113205e+000 6.699038e+000 4.013718e+000
      vertex   -9.079322e+000 1.096962e+001 1.473718e+000
    endloop
  endfacet
  facet normal 5.820560e-001 8.131487e-001 -5.686781e-016
    outer loop
      vertex   -9.079322e+000 1.096962e+001 1.473718e+000
      vertex   -3.113205e+000 6.699038e+000 4.013718e+000
      vertex   -3.113205e+000 6.699038e+000 1.473718e+000
    endloop
  endfacet
  facet normal -7.976497e-001 6.031210e-001 0.000000e+000
    outer loop
      vertex   -9.937161e+000 9.835092e+000 4.013718e+000
      vertex   -9.079322e+000 1.096962e+001 4.013718e+000
      vertex   -9.937161e+000 9.835092e+000 1.473718e+000
    endloop
  endfacet
  facet normal -7.976497e-001 6.031210e-001 0.000000e+000
    outer loop
      vertex   -9.937161e+000 9.835092e+000 1.473718e+000
      vertex   -9.079322e+000 1.096962e+001 4.013718e+000
      vertex   -9.079322e+000 1.096962e+001 1.473718e+000
    endloop
  endfacet
  facet normal -0.000000e+000 -0.000000e+000 -1.000000e+000
    outer loop
      vertex   -9.079322e+000 1.096962e+001 1.473718e+000
      vertex   -3.113205e+000 6.699038e+000 1.473718e+000
      vertex   -9.937161e+000 9.835092e+000 1.473718e+000
    endloop
  endfacet
  facet normal 1.287783e-016 2.802177e-016 -1.000000e+000
    outer loop
      vertex   -9.937161e+000 9.835092e+000 1.473718e+000
      vertex   -3.113205e+000 6.699038e+000 1.473718e+000
      vertex   -9.214859e+000 1.579142e+000 1.473718e+000
    endloop
  endfacet
  facet normal 0.000000e+000 0.000000e+000 1.000000e+000
    outer loop
      vertex   -9.079322e+000 1.096962e+001 4.013718e+000
      vertex   -9.937161e+000 9.835092e+000 4.013718e+000
      vertex   -3.113205e+000 6.699038e+000 4.013718e+000
    endloop
  endfacet
  facet normal -1.545340e-016 -3.362612e-016 1.000000e+000
    outer loop
      vertex   -3.113205e+000 6.699038e+000 4.013718e+000
      vertex   -9.937161e+000 9.835092e+000 4.013718e+000
      vertex   -9.214859e+000 1.579142e+000 4.013718e+000
    endloop
  endfacet
  facet normal -0.000000e+000 0.000000e+000 1.000000e+000
    outer loop
      vertex   9.079322e+000 1.096962e+001 4.013718e+000
      vertex   3.113205e+000 6.699038e+000 4.013718e+000
      vertex   9.937161e+000 9.835092e+000 4.013718e+000
    endloop
  endfacet
  facet normal 1.545340e-016 -3.362612e-016 1.000000e+000
    outer loop
      vertex   9.937161e+000 9.835092e+000 4.013718e+000
      vertex   3.113205e+000 6.699038e+000 4.013718e+000
      vertex   9.214859e+000 1.579142e+000 4.013718e+000
    endloop
  endfacet
  facet normal 0.000000e+000 -0.000000e+000 -1.000000e+000
    outer loop
      vertex   9.079322e+000 1.096962e+001 1.473718e+000
      vertex   9.937161e+000 9.835092e+000 1.473718e+000
      vertex   3.113205e+000 6.699038e+000 1.473718e+000
    endloop
  endfacet
  facet normal -1.287783e-016 2.802177e-016 -1.000000e+000
    outer loop
      vertex   3.113205e+000 6.699038e+000 1.473718e+000
      vertex   9.937161e+000 9.835092e+000 1.473718e+000
      vertex   9.214859e+000 1.579142e+000 1.473718e+000
    endloop
  endfacet
  facet normal 7.976497e-001 6.031210e-001 -4.302326e-016
    outer loop
      vertex   9.079322e+000 1.096962e+001 4.013718e+000
      vertex   9.937161e+000 9.835092e+000 4.013718e+000
      vertex   9.079322e+000 1.096962e+001 1.473718e+000
    endloop
  endfacet
  facet normal 7.976497e-001 6.031210e-001 -4.217945e-016
    outer loop
      vertex   9.079322e+000 1.096962e+001 1.473718e+000
      vertex   9.937161e+000 9.835092e+000 4.013718e+000
      vertex   9.937161e+000 9.835092e+000 1.473718e+000
    endloop
  endfacet
  facet normal 9.961947e-001 -8.715574e-002 1.265800e-016
    outer loop
      vertex   9.937161e+000 9.835092e+000 4.013718e+000
      vertex   9.214859e+000 1.579142e+000 4.013718e+000
      vertex   9.937161e+000 9.835092e+000 1.473718e+000
    endloop
  endfacet
  facet normal 9.961947e-001 -8.715574e-002 7.119300e-016
    outer loop
      vertex   9.937161e+000 9.835092e+000 1.473718e+000
      vertex   9.214859e+000 1.579142e+000 4.013718e+000
      vertex   9.214859e+000 1.579142e+000 1.473718e+000
    endloop
  endfacet
  facet normal -6.427876e-001 -7.660444e-001 -3.512068e-016
    outer loop
      vertex   9.214859e+000 1.579142e+000 4.013718e+000
      vertex   3.113205e+000 6.699038e+000 4.013718e+000
      vertex   9.214859e+000 1.579142e+000 1.473718e+000
    endloop
  endfacet
  facet normal -6.427876e-001 -7.660444e-001 -0.000000e+000
    outer loop
      vertex   9.214859e+000 1.579142e+000 1.473718e+000
      vertex   3.113205e+000 6.699038e+000 4.013718e+000
      vertex   3.113205e+000 6.699038e+000 1.473718e+000
    endloop
  endfacet
  facet normal -5.820560e-001 8.131487e-001 0.000000e+000
    outer loop
      vertex   3.113205e+000 6.699038e+000 4.013718e+000
      vertex   9.079322e+000 1.096962e+001 4.013718e+000
      vertex   3.113205e+000 6.699038e+000 1.473718e+000
    endloop
  endfacet
  facet normal -5.820560e-001 8.131487e-001 -5.686781e-016
    outer loop
      vertex   3.113205e+000 6.699038e+000 1.473718e+000
      vertex   9.079322e+000 1.096962e+001 4.013718e+000
      vertex   9.079322e+000 1.096962e+001 1.473718e+000
    endloop
  endfacet
endsolid
