solid ascii
  facet normal 3.986536e-001 -6.841006e-001 6.108041e-001
    outer loop
      vertex   5.610412e+000 -5.080000e-001 1.925372e+001
      vertex   5.417350e-001 -2.151522e+000 2.072115e+001
      vertex   5.610412e+000 -1.353840e+000 1.830638e+001
    endloop
  endfacet
  facet normal 3.986536e-001 -6.841006e-001 6.108041e-001
    outer loop
      vertex   5.610412e+000 -1.353840e+000 1.830638e+001
      vertex   5.417350e-001 -2.151522e+000 2.072115e+001
      vertex   5.417350e-001 -2.997362e+000 1.977381e+001
    endloop
  endfacet
  facet normal 2.952215e-016 7.459377e-001 -6.660158e-001
    outer loop
      vertex   -5.610412e+000 -5.080000e-001 1.925372e+001
      vertex   5.610412e+000 -5.080000e-001 1.925372e+001
      vertex   -5.610412e+000 -1.353840e+000 1.830638e+001
    endloop
  endfacet
  facet normal 2.804686e-016 7.459377e-001 -6.660158e-001
    outer loop
      vertex   -5.610412e+000 -1.353840e+000 1.830638e+001
      vertex   5.610412e+000 -5.080000e-001 1.925372e+001
      vertex   5.610412e+000 -1.353840e+000 1.830638e+001
    endloop
  endfacet
  facet normal -3.986536e-001 -6.841006e-001 6.108041e-001
    outer loop
      vertex   -5.417350e-001 -2.151522e+000 2.072115e+001
      vertex   -5.610412e+000 -5.080000e-001 1.925372e+001
      vertex   -5.417350e-001 -2.997362e+000 1.977381e+001
    endloop
  endfacet
  facet normal -3.986536e-001 -6.841006e-001 6.108041e-001
    outer loop
      vertex   -5.417350e-001 -2.997362e+000 1.977381e+001
      vertex   -5.610412e+000 -5.080000e-001 1.925372e+001
      vertex   -5.610412e+000 -1.353840e+000 1.830638e+001
    endloop
  endfacet
  facet normal -3.057425e-016 -7.459377e-001 6.660158e-001
    outer loop
      vertex   5.417350e-001 -2.151522e+000 2.072115e+001
      vertex   -5.417350e-001 -2.151522e+000 2.072115e+001
      vertex   5.417350e-001 -2.997362e+000 1.977381e+001
    endloop
  endfacet
  facet normal -3.227376e-016 -7.459377e-001 6.660158e-001
    outer loop
      vertex   5.417350e-001 -2.997362e+000 1.977381e+001
      vertex   -5.417350e-001 -2.151522e+000 2.072115e+001
      vertex   -5.417350e-001 -2.997362e+000 1.977381e+001
    endloop
  endfacet
  facet normal -2.729844e-016 -6.660158e-001 -7.459377e-001
    outer loop
      vertex   5.417350e-001 -2.997362e+000 1.977381e+001
      vertex   -5.417350e-001 -2.997362e+000 1.977381e+001
      vertex   5.610412e+000 -1.353840e+000 1.830638e+001
    endloop
  endfacet
  facet normal -2.514783e-016 -6.660158e-001 -7.459377e-001
    outer loop
      vertex   5.610412e+000 -1.353840e+000 1.830638e+001
      vertex   -5.417350e-001 -2.997362e+000 1.977381e+001
      vertex   -5.610412e+000 -1.353840e+000 1.830638e+001
    endloop
  endfacet
  facet normal 1.860289e-016 6.660158e-001 7.459377e-001
    outer loop
      vertex   5.417350e-001 -2.151522e+000 2.072115e+001
      vertex   5.610412e+000 -5.080000e-001 1.925372e+001
      vertex   -5.417350e-001 -2.151522e+000 2.072115e+001
    endloop
  endfacet
  facet normal 2.635906e-016 6.660158e-001 7.459377e-001
    outer loop
      vertex   -5.417350e-001 -2.151522e+000 2.072115e+001
      vertex   5.610412e+000 -5.080000e-001 1.925372e+001
      vertex   -5.610412e+000 -5.080000e-001 1.925372e+001
    endloop
  endfacet
endsolid
